<?xml version="1.0" encoding="UTF-8"?>
<!DOCTYPE svg PUBLIC "-//W3C//DTD SVG 1.0//EN" "http://www.w3.org/TR/2001/REC-SVG-20010904/DTD/svg10.dtd">
<!-- Creator: CorelDRAW X8 -->
<svg xmlns="http://www.w3.org/2000/svg" xml:space="preserve" width="299.72mm" height="78.74mm" version="1.0" style="shape-rendering:geometricPrecision; text-rendering:geometricPrecision; image-rendering:optimizeQuality; fill-rule:evenodd; clip-rule:evenodd"
viewBox="0 0 5109 1342"
 xmlns:xlink="http://www.w3.org/1999/xlink">
 <defs>
  <style type="text/css">
   <![CDATA[
    .fil5 {fill:none}
    .fil0 {fill:#01BDC8}
    .fil2 {fill:#159BA7}
    .fil1 {fill:#472D74}
    .fil3 {fill:#6A598F}
    .fil4 {fill:black;fill-rule:nonzero}
   ]]>
  </style>
   <clipPath id="id0">
    <path d="M782 860l-134 -341 134 -407 134 407 -134 341z"/>
   </clipPath>
 </defs>
 <g id="Capa_x0020_1">
  <metadata id="CorelCorpID_0Corel-Layer"/>
  <g id="_2793840303520">
   <path class="fil0" d="M1365 1034l-232 72 -118 -179 350 107z"/>
   <path class="fil1" d="M1015 927l233 -72 117 179 -350 -107z"/>
   <path class="fil2" d="M1133 1106l232 -72 118 180 -350 -108z"/>
   <path class="fil3" d="M1248 855l-233 72 -117 -180 350 108z"/>
  </g>
  <g id="_2793840304640">
   <path class="fil0" d="M544 927l-233 -72 -117 179 350 -107z"/>
   <path class="fil1" d="M194 1034l233 72 117 -179 -350 107z"/>
   <path class="fil2" d="M311 855l233 72 117 -180 -350 108z"/>
   <path class="fil3" d="M427 1106l-233 -72 -117 180 350 -108z"/>
  </g>
  <g id="_2793840305984">
   <g>
    <path class="fil4" d="M1681 829l0 -203c0,-21 3,-39 8,-53 6,-13 14,-24 25,-30 11,-7 22,-12 34,-15 12,-3 24,-5 37,-5l44 -1 0 39 -41 0c-9,0 -18,1 -26,4 -8,2 -15,5 -21,9 -6,4 -11,10 -14,18 -3,8 -4,17 -4,28l0 37 106 0 0 38 -106 0 0 134 -42 0 0 0zm349 0l0 -120c0,-7 -2,-13 -4,-19 -3,-7 -6,-13 -11,-18 -5,-6 -12,-10 -21,-13 -9,-3 -20,-5 -33,-5 -2,0 -4,0 -7,1 -2,0 -4,0 -7,1 -2,0 -5,1 -8,2 -2,1 -5,2 -8,3 -4,2 -9,5 -13,9 -4,3 -9,8 -13,13 -4,4 -7,10 -9,17 -2,7 -4,15 -4,23 0,12 1,22 4,31 4,9 8,16 15,22 7,5 14,10 21,13 7,3 14,5 22,6 1,0 1,0 1,0 1,0 1,0 1,0 1,1 2,1 2,1 0,0 1,0 1,0 1,0 1,0 1,0 1,0 1,0 2,0 0,0 0,0 1,0 0,0 1,0 1,0 3,0 7,0 10,-1 3,0 6,-1 9,-2 1,-1 3,-1 4,-2 1,-1 3,-1 4,-2 1,-1 3,-2 4,-2 1,-1 3,-2 4,-4 1,0 3,-1 4,-3 1,-1 3,-2 4,-4 2,-1 3,-2 5,-4 1,-1 3,-2 4,-4l0 48c0,0 -1,1 -1,1 0,0 0,0 0,0 0,0 0,0 0,0 0,0 0,0 0,0 0,0 0,1 0,1 0,0 0,0 0,0 -3,2 -7,4 -11,6 -4,2 -8,4 -12,5 -4,1 -9,2 -15,3 -5,1 -12,1 -20,1 0,0 0,0 0,0 0,0 -1,0 -1,0 0,0 -1,0 -1,0 0,0 0,0 0,0 -1,0 -1,0 -1,0 0,0 -1,0 -1,0 0,0 -1,0 -1,0 0,0 0,0 0,0 -14,0 -26,-2 -38,-7 -11,-5 -22,-12 -32,-22 -9,-11 -16,-22 -21,-36 -5,-13 -8,-28 -8,-45 0,-14 3,-28 7,-40 5,-13 12,-24 22,-35 9,-10 20,-18 34,-24 14,-5 30,-7 48,-7 17,0 32,2 46,7 13,4 25,11 34,21 9,9 16,19 20,29 5,11 7,21 7,32l0 123 -41 0 0 0zm72 -103c0,-2 0,-5 0,-8 1,-3 1,-6 2,-9 0,-3 1,-6 2,-10 1,-3 3,-7 4,-10 3,-8 8,-16 13,-24 6,-7 13,-14 20,-21 8,-7 17,-12 28,-15 10,-4 22,-5 35,-5l41 -1 0 37 -31 0c-2,1 -4,1 -6,1 -2,1 -5,1 -7,2 -2,0 -5,0 -7,1 -2,0 -5,1 -7,2 -5,2 -10,5 -15,8 -5,3 -9,7 -14,12 -4,5 -8,11 -10,18 -2,6 -3,14 -3,23 0,1 0,2 0,3 0,0 0,1 0,2 0,1 0,2 0,2 0,1 0,2 0,3 0,1 1,2 1,3 0,1 0,1 0,2 1,1 1,2 1,3 0,1 1,2 1,3 2,6 4,11 7,16 3,5 7,10 12,15 5,4 10,8 17,10 7,2 15,3 24,3 0,0 1,0 1,0 1,0 1,0 1,0 1,0 1,0 2,0 1,0 1,0 2,0l31 -1 0 38 -45 0c-13,0 -25,-2 -36,-5 -10,-4 -19,-9 -26,-16 -8,-6 -14,-13 -19,-21 -5,-7 -9,-14 -12,-22 -1,-4 -2,-7 -3,-10 -1,-4 -2,-7 -2,-10 -1,-3 -1,-6 -2,-9 0,-3 0,-6 0,-9l0 -1zm179 35l0 -193 42 0 0 51 79 0 0 38 -79 0 0 107c0,4 0,8 1,11 0,3 1,6 2,9 1,3 4,5 8,6 4,2 9,2 16,2l49 -1 0 38 -52 0c0,0 0,0 -1,0 0,0 0,0 -1,0 0,0 0,0 0,0 0,0 -1,1 -1,1 0,0 0,0 -1,0 0,0 0,0 -1,0 0,0 0,0 0,0 0,0 -1,0 -1,0 -10,0 -18,-2 -26,-4 -7,-3 -13,-8 -18,-14 -4,-6 -8,-13 -10,-20 -3,-7 -5,-14 -5,-22 0,0 -1,-1 -1,-2 0,0 0,-1 0,-2 0,-1 0,-1 0,-2 0,-1 0,-2 0,-2l0 -1zm138 -142l39 0 0 128c0,8 1,15 3,21 2,7 6,12 11,17 5,5 10,8 16,11 6,2 13,3 21,3 6,0 12,-1 17,-3 6,-2 10,-5 14,-9 4,-5 7,-9 10,-14 3,-5 5,-10 6,-15 0,-2 0,-3 0,-4 0,-1 1,-2 1,-3 0,-1 0,-1 0,-2 0,0 0,-1 0,-1 0,-1 0,-2 0,-2 0,-1 0,-1 0,-2l0 -125 39 0 0 121c0,0 0,1 0,1 0,1 0,1 0,1 0,1 0,1 0,1 0,0 0,1 0,1 0,0 0,1 0,1 0,0 0,1 0,1 0,0 0,0 0,1 0,0 0,0 0,1 0,12 -2,23 -6,34 -4,10 -10,20 -18,29 -8,8 -17,15 -27,19 -11,4 -23,6 -36,6 -13,0 -24,-1 -35,-5 -11,-4 -21,-9 -29,-16 -9,-8 -15,-18 -19,-30 -4,-12 -7,-27 -7,-44l0 -122 0 0zm218 0l38 0 0 21c0,0 1,-1 1,-2 1,0 1,-1 2,-2 1,-1 2,-1 3,-2 0,-1 1,-2 2,-3 3,-2 5,-4 8,-7 3,-2 6,-3 10,-5 3,-2 7,-3 12,-4 4,-1 9,-2 14,-2l14 -1 0 38 -11 0c-8,2 -15,4 -21,7 -6,3 -11,6 -15,11 -4,4 -7,9 -9,14 -3,4 -5,9 -6,14 -1,4 -2,8 -3,11 0,4 -1,7 -1,10 0,4 0,7 0,10 0,2 0,5 0,7l0 95 -38 0 0 -210 0 0zm293 210l0 -120c0,-7 -1,-13 -3,-19 -3,-7 -7,-13 -12,-18 -5,-6 -12,-10 -21,-13 -9,-3 -20,-5 -33,-5 -2,0 -4,0 -6,1 -2,0 -4,0 -7,1 -3,0 -5,1 -8,2 -3,1 -5,2 -8,3 -5,2 -9,5 -13,9 -5,3 -9,8 -13,13 -4,4 -7,10 -9,17 -3,7 -4,15 -5,23 0,12 2,22 5,31 3,9 8,16 15,22 6,5 13,10 20,13 7,3 15,5 23,6 0,0 1,0 1,0 0,0 1,0 1,0 1,1 1,1 2,1 0,0 0,0 1,0 0,0 1,0 1,0 0,0 1,0 1,0 1,0 1,0 1,0 1,0 1,0 2,0 3,0 6,0 9,-1 3,0 6,-1 9,-2 2,-1 3,-1 5,-2 1,-1 2,-1 4,-2 1,-1 2,-2 4,-2 1,-1 2,-2 4,-4 1,0 2,-1 4,-3 1,-1 2,-2 4,-4 1,-1 3,-2 4,-4 2,-1 3,-2 5,-4l0 48c-1,0 -1,1 -1,1 0,0 0,0 0,0 0,0 0,0 0,0 0,0 0,0 0,0 0,0 0,1 0,1 0,0 0,0 0,0 -4,2 -7,4 -11,6 -4,2 -8,4 -12,5 -4,1 -9,2 -15,3 -6,1 -12,1 -20,1 0,0 -1,0 -1,0 0,0 0,0 0,0 -1,0 -1,0 -1,0 -1,0 -1,0 -1,0 0,0 0,0 -1,0 0,0 0,0 0,0 -1,0 -1,0 -1,0 0,0 0,0 -1,0 -13,0 -26,-2 -37,-7 -12,-5 -22,-12 -32,-22 -10,-11 -17,-22 -22,-36 -4,-13 -7,-28 -7,-45 0,-14 2,-28 7,-40 5,-13 12,-24 21,-35 10,-10 21,-18 35,-24 14,-5 29,-7 48,-7 17,0 32,2 46,7 13,4 24,11 33,21 10,9 17,19 21,29 5,11 7,21 7,32l0 123 -42 0 0 0zm238 -303l42 0 0 197c0,0 0,1 0,1 0,0 0,0 0,1 0,0 0,0 0,1 0,0 0,0 0,1 0,0 0,0 0,0 0,0 0,1 0,1 0,0 0,0 0,1 0,0 0,0 0,1 0,3 0,6 -1,9 0,4 -1,8 -1,12 -1,3 -2,7 -4,12 -1,4 -2,8 -4,12 -3,8 -8,15 -13,22 -6,8 -12,14 -19,21 -8,6 -16,11 -26,14 -10,3 -21,4 -34,4 0,0 -1,0 -1,0 0,0 -1,0 -2,0 0,0 0,0 -1,0 0,0 -1,0 -1,0 -18,0 -33,-3 -46,-8 -13,-5 -23,-11 -31,-20 -8,-9 -15,-19 -20,-29 -4,-10 -7,-20 -9,-31 0,-1 0,-3 -1,-4 0,-2 0,-3 0,-5 0,-1 0,-3 0,-4 0,-2 0,-3 0,-5 0,0 0,0 0,0 0,0 0,-1 0,-1 0,0 0,0 0,-1 0,0 0,0 0,-1 0,0 0,0 0,0 0,0 0,-1 0,-1 0,0 0,0 0,-1 0,0 0,0 0,-1 0,-13 1,-26 5,-37 3,-11 9,-20 16,-28 7,-9 14,-15 22,-21 8,-6 16,-10 24,-13 2,-1 5,-1 7,-2 3,-1 5,-1 8,-2 2,0 5,-1 7,-1 3,0 5,0 7,0 10,0 18,0 25,1 6,1 12,2 16,3 5,2 9,3 12,5 4,1 7,3 10,5l0 40c-1,0 -2,0 -2,0 -1,-1 -2,-1 -3,-1 0,-1 -1,-1 -1,-1 -1,-1 -1,-1 -1,-1 -1,0 -2,0 -2,-1 0,0 -1,0 -2,0 -2,-2 -6,-3 -10,-5 -3,-1 -8,-2 -12,-3 -4,-2 -9,-3 -13,-3 -4,-1 -9,-1 -13,-1 -1,0 -1,0 -2,0 -1,0 -1,0 -2,0 0,0 0,0 -1,0 0,0 0,0 0,0 -1,0 -1,0 -1,0 -1,0 -1,0 -1,0 -7,1 -14,3 -20,7 -6,3 -12,8 -18,14 -6,6 -10,13 -13,21 -3,8 -5,17 -5,27 0,0 0,1 0,1 0,0 0,0 0,1 0,0 0,0 0,1 0,0 0,0 1,0 0,1 0,1 0,1 0,1 0,1 0,1 0,1 0,1 0,1 0,0 0,1 0,1 1,10 3,18 6,26 2,7 6,13 10,17 5,5 9,9 14,12 5,3 9,5 15,6 2,1 4,2 7,2 2,1 5,2 7,2 3,0 5,0 7,0 2,0 4,0 6,0 11,0 21,-2 29,-6 8,-5 14,-11 19,-20 5,-9 8,-19 11,-29 2,-11 3,-22 3,-35l0 -183 0 0zm76 193c0,-16 3,-30 8,-43 6,-13 14,-24 25,-34 11,-10 23,-17 35,-22 12,-5 25,-7 39,-7 1,0 1,0 2,0 1,0 2,0 2,0 1,0 1,1 2,1 1,0 2,0 3,0 0,0 1,0 2,0 0,0 1,0 2,0 0,0 1,0 2,0 1,0 1,0 2,0 12,2 23,5 33,10 11,5 21,12 31,21 10,8 17,19 22,32 5,14 8,29 8,46 0,2 0,3 0,4 0,1 -1,2 -1,3 0,1 0,2 0,4 0,1 0,2 0,3 -1,2 -1,5 -1,7 -1,2 -1,5 -2,7 -3,11 -7,21 -12,30 -5,10 -12,19 -21,27 -8,8 -18,15 -29,19 -11,4 -24,6 -38,6 -20,0 -37,-3 -52,-8 -14,-6 -26,-14 -35,-25 -9,-11 -16,-23 -20,-37 -5,-13 -7,-28 -7,-43l0 -1zm42 0c0,2 0,5 0,6 0,2 0,4 0,6 0,2 1,4 1,6 0,2 1,4 1,6 2,7 4,13 7,19 3,6 7,12 12,18 5,5 11,9 18,12 8,2 16,4 26,4 10,0 18,-2 26,-4 9,-3 16,-7 23,-12 7,-5 12,-13 15,-23 3,-10 5,-22 5,-37 0,-10 -1,-20 -4,-28 -3,-8 -8,-16 -14,-22 -5,-6 -13,-11 -21,-14 -9,-3 -19,-5 -30,-5 -10,0 -19,2 -27,4 -8,3 -14,7 -19,13 -5,6 -9,12 -12,18 -3,7 -5,13 -6,20 0,1 -1,2 -1,3 0,2 0,3 0,4 0,1 0,2 0,3 0,2 0,3 0,4l0 -1zm206 -100l38 0 0 21c1,0 1,-1 2,-2 0,0 1,-1 2,-2 0,-1 1,-1 2,-2 1,-1 2,-2 3,-3 2,-2 5,-4 7,-7 3,-2 6,-3 10,-5 4,-2 8,-3 12,-4 4,-1 9,-2 14,-2l14 -1 0 38 -10 0c-9,2 -16,4 -21,7 -6,3 -11,6 -15,11 -4,4 -7,9 -10,14 -2,4 -4,9 -6,14 -1,4 -2,8 -2,11 -1,4 -1,7 -1,10 0,4 -1,7 -1,10 0,2 0,5 0,7l0 95 -38 0 0 -210 0 0zm232 172l110 0c7,1 13,1 19,-1 5,-1 10,-3 14,-6 4,-2 8,-6 10,-10 3,-5 5,-10 6,-16 0,-5 -1,-10 -3,-15 -2,-4 -4,-9 -8,-13 -3,-5 -8,-9 -13,-13 -5,-3 -11,-7 -18,-11 -1,0 -2,-1 -4,-1 -1,-1 -2,-2 -3,-2 -1,-1 -2,-1 -4,-2 -1,0 -2,-1 -3,-2 0,0 -1,0 -1,0 0,0 0,0 0,0 0,0 0,0 -1,0 0,0 0,0 0,-1 -12,-5 -24,-11 -35,-18 -11,-6 -22,-13 -32,-20 -10,-7 -18,-15 -23,-25 -5,-9 -7,-19 -7,-31 0,0 0,-1 0,-1 0,0 0,0 0,0 0,0 0,-1 0,-1 0,0 0,0 0,-1 0,0 0,0 0,0 0,0 0,0 0,-1 0,0 0,0 0,0 0,0 0,-1 0,-1 0,-11 1,-21 4,-29 3,-9 8,-16 14,-21 7,-6 13,-11 20,-15 7,-4 15,-6 23,-8 1,0 2,-1 3,-1 2,0 3,0 4,0 0,0 1,0 2,-1 0,0 1,0 2,0 0,0 1,0 2,-1 0,0 1,0 1,0l107 -1 0 39 -100 0c-6,0 -11,1 -16,3 -5,2 -9,4 -13,8 -3,3 -6,7 -8,11 -1,4 -2,8 -3,12 0,0 0,0 0,0 0,0 0,1 0,1 0,0 0,0 0,0 0,0 0,1 0,1 0,0 0,0 0,1 0,0 0,0 0,0 0,0 0,0 0,0 0,1 0,1 0,1 0,3 0,5 0,8 1,2 1,4 3,7 1,2 2,3 4,5 2,2 4,3 6,5 6,4 13,8 19,12 6,4 12,7 18,10 6,3 11,6 17,9 5,3 10,5 15,8 2,1 3,2 5,2 1,1 2,2 3,2 1,1 1,1 2,1 1,1 2,1 3,2 0,0 1,1 2,1 0,0 1,0 2,1 0,0 1,1 2,2 1,0 3,1 4,2 1,0 2,1 3,2 1,0 2,1 3,2 6,3 11,7 15,12 5,5 10,10 14,16 5,6 8,12 10,19 3,8 4,16 4,24 0,2 0,4 0,7 -1,2 -1,4 -1,7 0,2 -1,4 -1,7 0,2 -1,5 -1,7 -2,7 -5,13 -8,18 -4,6 -8,12 -14,17 -5,5 -13,9 -21,12 -9,2 -20,3 -33,3 0,0 0,0 -1,0 0,0 0,0 0,0 -1,0 -1,0 -1,0 -1,0 -1,0 -1,0 0,0 -1,0 -1,0 -1,0 -1,0 -1,0 -1,0 -1,0 -1,0 -1,0 -1,0 -1,0l-114 0 0 -38 0 0z"/>
    <path class="fil4" d="M3955 522l45 0 0 197c0,14 1,26 4,36 3,10 8,18 13,24 6,5 13,9 20,12 6,3 14,5 22,5 9,0 17,-2 24,-5 7,-3 13,-7 18,-13 4,-6 8,-12 11,-19 2,-6 4,-13 4,-21 0,0 0,0 0,-1 0,0 1,0 1,-1 0,0 0,0 0,-1 0,0 0,0 0,-1 0,0 0,-1 0,-2 0,0 0,-1 0,-2l0 -208 45 0 0 204c0,19 -3,35 -8,48 -5,14 -13,25 -23,34 -10,8 -21,15 -34,19 -12,4 -25,6 -38,6 -14,0 -27,-2 -39,-7 -12,-4 -24,-11 -34,-21 -11,-9 -18,-20 -23,-32 -6,-13 -8,-27 -8,-43l0 -208 0 0zm245 307l0 -265c0,-6 1,-12 3,-18 2,-5 5,-9 9,-13 4,-4 8,-6 12,-8 5,-2 10,-3 15,-3 4,0 7,0 11,1 3,1 7,3 10,5 3,2 6,5 9,8 3,3 5,7 7,11l107 224 0 -249 41 0 0 287c0,5 -1,9 -2,13 -2,3 -4,6 -7,7 -3,3 -6,4 -9,5 -4,1 -7,2 -11,2 0,0 -1,0 -1,0 0,0 -1,0 -2,0 0,0 0,0 0,0 0,0 0,0 0,0 -1,-1 -1,-1 -1,-1 0,0 0,0 -1,0 -3,0 -7,-1 -10,-2 -3,-1 -6,-2 -9,-4 -3,-1 -5,-2 -7,-5 -2,-2 -4,-4 -5,-7l-114 -236 0 248 -45 0 0 0zm269 0l0 -203c0,-15 2,-29 6,-42 5,-13 12,-25 21,-36 9,-10 20,-18 33,-24 13,-5 27,-8 44,-8 15,0 29,3 42,8 13,5 24,13 34,24 10,10 18,23 23,37 5,14 7,30 7,47 0,1 0,1 0,1 0,0 0,0 0,0 0,1 0,1 0,1 0,0 0,0 0,1 0,0 0,0 0,0 0,1 0,1 0,1 0,1 0,1 0,1 0,1 0,1 0,2 0,0 0,1 0,1 0,0 0,0 0,1l0 188 -41 0 0 -141 -114 0 0 -41 114 0c0,0 0,0 0,-1 0,0 0,-1 0,-1 0,0 0,-1 0,-1 0,0 0,0 0,-1 0,0 0,0 0,0 0,0 0,-1 0,-1 0,-1 0,-1 0,-2 0,0 0,0 0,-1 0,0 0,0 0,-1 0,0 0,0 0,0 0,0 0,-1 0,-1 0,0 0,0 0,-1 0,-13 -1,-25 -4,-36 -3,-10 -7,-18 -12,-25 -6,-7 -13,-12 -20,-15 -8,-4 -17,-6 -26,-6 -9,0 -17,2 -25,4 -7,2 -12,6 -17,10 -5,4 -9,9 -12,14 -3,5 -5,10 -7,15 -1,3 -1,6 -2,8 -1,3 -1,5 -2,8 0,3 0,5 0,7 -1,2 -1,5 -1,7l0 202 -41 0 0 0zm217 -268l0 -39 197 0 0 39 -76 0 0 268 -45 0 0 -268 -76 0 0 0z"/>
   </g>
   <g>
    <path class="fil4" d="M1681 1076l45 0c3,1 6,0 8,0 2,-1 4,-1 6,-3 2,-1 3,-2 4,-4 1,-2 2,-4 2,-6 0,-2 0,-4 -1,-6 -1,-2 -2,-4 -3,-6 -2,-2 -3,-3 -6,-5 -2,-1 -4,-3 -7,-4 0,-1 -1,-1 -1,-1 -1,0 -1,-1 -2,-1 0,0 -1,0 -1,-1 -1,0 -1,0 -2,0 0,0 0,0 0,0 0,0 0,0 0,0 0,0 0,0 0,0 0,0 0,0 0,-1 -5,-2 -10,-5 -15,-7 -4,-3 -9,-6 -13,-8 -4,-3 -7,-7 -9,-10 -2,-4 -3,-9 -3,-13 0,0 0,0 0,-1 0,0 0,0 0,0 0,0 0,0 0,0 0,0 0,0 0,0 0,0 0,0 0,0 0,-1 0,-1 0,-1 0,0 0,0 0,0 0,0 0,0 0,0 0,-5 0,-9 2,-12 1,-4 3,-7 5,-9 3,-2 6,-4 9,-6 3,-1 6,-2 9,-3 0,0 1,0 1,0 1,0 1,-1 2,-1 0,0 0,0 0,0 1,0 1,0 1,0 1,0 1,0 1,0 0,0 0,0 1,0l43 -1 0 16 -40 0c-3,0 -5,1 -7,1 -2,1 -4,2 -5,4 -2,1 -3,3 -3,4 -1,2 -2,3 -2,5 0,0 0,0 0,0 0,0 0,0 0,0 0,0 0,1 0,1 0,0 0,0 0,0 0,0 0,0 0,0 0,0 0,0 0,0 0,0 0,0 0,0 0,1 0,1 0,1 0,1 0,2 0,3 0,1 1,2 1,3 1,0 1,1 2,2 1,1 1,1 2,2 3,2 6,3 8,5 3,2 5,3 8,4 2,1 4,2 6,4 2,1 5,2 7,3 0,0 1,1 1,1 1,0 2,0 2,1 0,0 1,0 1,0 0,0 0,0 1,1 0,0 0,0 1,0 0,0 0,0 0,0 1,1 1,1 2,1 0,1 0,1 1,1 0,0 1,1 1,1 1,0 1,0 2,1 2,1 4,3 6,5 2,2 4,4 5,6 2,3 4,5 5,8 0,3 1,6 1,10 0,1 0,2 0,3 0,1 0,1 0,2 -1,1 -1,2 -1,3 0,1 0,2 0,3 -1,3 -2,5 -4,8 -1,2 -3,4 -5,7 -2,2 -5,3 -9,4 -4,1 -8,2 -13,2 0,0 0,0 0,0 -1,0 -1,0 -1,0 0,0 0,0 0,0 0,0 0,0 -1,0 0,0 0,0 0,0 0,0 0,0 0,0 -1,0 -1,0 -1,0 0,0 0,0 0,0l-47 0 0 -16 0 0zm93 -29c0,-7 1,-13 4,-18 2,-5 5,-10 10,-14 4,-4 9,-7 14,-9 5,-2 10,-3 16,-3 0,0 1,0 1,0 0,0 0,0 1,0 0,1 0,1 1,1 0,0 0,0 1,0 0,0 0,0 0,0 1,0 1,0 1,0 1,0 1,0 1,0 0,0 1,0 1,0 5,1 9,2 14,4 4,2 8,5 12,8 4,4 7,8 9,14 2,5 3,11 3,19 0,0 0,1 0,1 0,0 0,1 0,1 0,1 0,1 0,2 0,0 0,1 0,1 0,1 0,2 -1,3 0,1 0,2 0,3 -1,4 -3,8 -5,12 -2,4 -5,8 -9,11 -3,4 -7,6 -12,8 -4,2 -9,2 -15,2 -8,0 -15,-1 -21,-3 -6,-2 -11,-6 -15,-10 -3,-5 -6,-10 -8,-15 -2,-6 -3,-12 -3,-18l0 0zm17 0c0,1 0,2 0,2 0,1 0,2 0,3 1,1 1,1 1,2 0,1 0,2 0,3 1,2 2,5 3,7 1,3 3,5 5,8 2,2 5,3 8,5 3,1 6,1 10,1 4,0 7,0 11,-1 3,-2 6,-3 9,-5 3,-2 5,-6 6,-10 2,-4 2,-9 2,-15 0,-4 0,-8 -2,-11 -1,-4 -3,-7 -5,-9 -2,-3 -5,-5 -9,-6 -3,-1 -7,-2 -12,-2 -4,0 -8,1 -11,2 -3,1 -6,3 -8,5 -2,2 -3,5 -5,7 -1,3 -2,6 -2,8 0,1 0,1 -1,2 0,0 0,1 0,1 0,1 0,1 0,2 0,0 0,1 0,1l0 0zm89 -81l17 0 0 126 -17 0 0 -126 0 0zm37 40l15 0 0 52c0,3 1,6 2,9 1,3 2,5 4,7 2,2 4,3 7,4 2,1 5,2 8,2 3,0 5,-1 7,-2 2,-1 4,-2 6,-4 1,-1 3,-3 4,-5 1,-2 2,-4 2,-6 0,-1 0,-1 1,-2 0,0 0,-1 0,-1 0,0 0,-1 0,-1 0,0 0,0 0,-1 0,0 0,0 0,0 0,-1 0,-1 0,-1l0 -51 16 0 0 49c0,0 0,1 0,1 0,0 0,0 0,0 0,0 0,1 0,1 0,0 0,0 0,0 0,0 0,0 0,0 0,0 0,1 0,1 0,0 0,0 0,0 0,0 0,0 0,0 0,5 -1,10 -3,14 -1,5 -4,9 -7,12 -3,4 -7,6 -11,8 -5,2 -9,3 -15,3 -5,0 -10,-1 -14,-2 -5,-2 -9,-4 -12,-7 -4,-3 -6,-7 -8,-12 -2,-5 -2,-11 -2,-18l0 -50 0 0zm88 44c0,-1 0,-2 1,-4 0,-1 0,-2 0,-3 0,-2 1,-3 1,-4 1,-2 1,-3 2,-5 1,-3 3,-6 5,-9 2,-3 5,-6 8,-9 4,-3 7,-5 12,-6 4,-2 9,-2 14,-2l17 -1 0 16 -13 0c-1,0 -2,0 -3,0 0,0 -1,0 -2,1 -1,0 -2,0 -3,0 -1,0 -2,1 -3,1 -2,1 -4,2 -6,3 -2,2 -4,3 -6,5 -2,2 -3,5 -4,7 -1,3 -1,6 -1,10 0,0 0,1 0,1 0,0 0,1 0,1 0,0 0,1 0,1 0,0 0,1 0,1 0,0 0,1 0,1 0,1 0,1 0,1 0,1 1,1 1,2 0,0 0,0 0,1 1,2 2,4 3,6 1,2 3,4 5,6 2,2 4,3 7,4 2,1 6,2 9,2 1,0 1,0 1,0 0,0 0,0 0,0 1,0 1,0 1,0 0,0 1,0 1,0l13 -1 0 16 -19 0c-5,0 -10,-1 -14,-2 -4,-2 -8,-4 -11,-7 -3,-2 -6,-5 -8,-8 -2,-3 -4,-6 -5,-10 0,-1 -1,-2 -1,-4 0,-1 -1,-2 -1,-4 0,-1 0,-2 0,-3 -1,-2 -1,-3 -1,-4l0 0zm79 42l0 -86 16 0 0 86 -16 0 0 0zm-1 -106c0,-1 0,-2 1,-4 0,-1 1,-2 2,-3 1,0 2,-1 3,-1 1,-1 3,-1 4,-1 1,0 2,0 3,1 1,0 2,1 4,1 1,1 1,2 2,3 0,2 1,3 1,4 0,2 -1,3 -1,5 -1,1 -1,2 -2,3 -1,0 -2,1 -4,1 -1,1 -2,1 -3,1 -1,0 -2,0 -4,0 -1,-1 -2,-1 -3,-2 -1,-1 -2,-2 -2,-3 -1,-2 -1,-3 -1,-5l0 0zm39 61c0,-7 2,-13 4,-18 2,-5 5,-10 10,-14 4,-4 9,-7 14,-9 5,-2 11,-3 16,-3 1,0 1,0 1,0 0,0 1,0 1,0 0,1 0,1 1,1 0,0 0,0 1,0 0,0 0,0 0,0 1,0 1,0 1,0 1,0 1,0 1,0 1,0 1,0 1,0 5,1 9,2 14,4 4,2 8,5 12,8 4,4 7,8 9,14 2,5 3,11 3,19 0,0 0,1 0,1 0,0 0,1 0,1 0,1 0,1 0,2 0,0 0,1 0,1 0,1 0,2 0,3 -1,1 -1,2 -1,3 -1,4 -3,8 -5,12 -2,4 -5,8 -8,11 -4,4 -8,6 -12,8 -5,2 -10,2 -16,2 -8,0 -15,-1 -21,-3 -6,-2 -11,-6 -14,-10 -4,-5 -7,-10 -9,-15 -2,-6 -3,-12 -3,-18l0 0zm17 0c0,1 0,2 0,2 0,1 0,2 1,3 0,1 0,1 0,2 0,1 0,2 1,3 0,2 1,5 2,7 2,3 3,5 5,8 2,2 5,3 8,5 3,1 6,1 10,1 4,0 8,0 11,-1 3,-2 6,-3 9,-5 3,-2 5,-6 6,-10 2,-4 2,-9 2,-15 0,-4 0,-8 -1,-11 -2,-4 -3,-7 -6,-9 -2,-3 -5,-5 -9,-6 -3,-1 -7,-2 -12,-2 -4,0 -8,1 -11,2 -3,1 -5,3 -8,5 -2,2 -3,5 -4,7 -2,3 -3,6 -3,8 0,1 0,1 0,2 -1,0 -1,1 -1,1 0,1 0,1 0,2 0,0 0,1 0,1l0 0zm88 45l0 -52c0,-5 1,-9 2,-14 2,-4 4,-8 8,-12 3,-3 7,-6 12,-8 5,-2 10,-3 16,-3 1,0 2,1 3,1 1,0 2,0 4,0 1,0 2,1 4,1 1,0 3,1 4,2 2,1 5,2 7,4 2,1 5,3 7,6 2,2 4,5 5,8 1,3 1,7 1,12 0,0 0,0 0,0 0,0 0,0 0,1 0,0 0,0 0,0 0,0 0,1 0,1l0 53 -17 0 0 -51c0,-2 0,-5 -1,-8 -1,-2 -2,-5 -3,-7 -2,-2 -4,-4 -7,-5 -2,-1 -5,-2 -9,-2 -3,0 -6,1 -8,2 -2,1 -5,2 -6,4 -2,3 -4,5 -5,7 -1,3 -1,5 -2,8l0 52 -15 0 0 0zm106 -39l42 -24c0,-1 -1,-1 -1,-1 0,0 0,0 -1,-1 0,0 0,0 0,-1 -1,0 -1,0 -1,-1 -1,0 -1,0 -2,0 0,-1 0,-1 -1,-1 0,-1 -1,-1 -1,-1 -1,-1 -1,-1 -2,-1 -1,-1 -2,-1 -4,-1 -2,-1 -3,-1 -5,-1 -5,0 -9,1 -13,3 -3,1 -6,4 -9,7 -2,3 -4,7 -5,10 -1,4 -2,8 -2,11 0,1 0,1 0,1 0,0 0,0 0,0 0,0 0,0 0,0 0,0 0,0 0,0 0,0 0,0 0,0 0,0 0,0 0,0 0,3 1,7 2,10 1,3 3,6 6,9 2,3 5,5 8,6 4,2 8,3 13,3 4,0 9,-1 12,-2 3,-1 6,-3 7,-5 2,-3 3,-5 5,-9 1,-3 2,-7 4,-11 0,0 0,0 0,0 0,0 0,0 0,0 0,0 0,0 0,0 0,0 0,0 0,0 0,0 0,0 0,0 0,0 0,0 0,0 0,0 0,0 0,0 0,0 0,0 0,0l15 1c0,0 0,0 0,0 0,1 0,1 0,1 0,0 0,0 0,0 0,1 0,1 0,1 0,0 0,0 0,0 0,1 0,1 1,1 0,0 0,0 0,0 0,0 0,1 0,1 0,1 0,2 -1,3 0,1 0,2 0,3 0,0 0,1 -1,1 0,1 0,2 0,2 0,1 0,1 -1,2 0,0 0,1 0,1 -2,3 -4,6 -6,9 -2,3 -5,6 -9,8 -3,3 -7,5 -11,6 -5,1 -10,2 -15,2 -7,0 -13,-1 -18,-3 -5,-2 -10,-5 -14,-9 -5,-4 -8,-9 -10,-14 -2,-5 -4,-11 -4,-18 0,-6 1,-12 3,-17 2,-5 5,-10 8,-14 4,-3 8,-6 11,-9 4,-2 9,-4 13,-5 0,0 1,0 1,0 1,0 1,0 2,0 0,0 0,0 1,0 0,-1 1,-1 1,-1 1,0 2,0 3,0 1,0 2,0 3,0 4,0 9,1 13,2 5,1 8,3 12,6 3,3 7,6 9,9 3,4 6,7 8,11l-59 32 -7 -12 0 0zm79 23l36 0c0,1 1,1 1,1 0,0 0,0 0,0 1,0 1,0 1,0 0,0 1,0 1,0 0,0 0,0 1,0 0,0 0,0 0,0 1,0 1,0 1,0 0,0 1,0 1,0 1,0 3,0 4,0 1,-1 2,-1 3,-1 2,-1 3,-1 3,-2 1,-1 1,-3 1,-4 0,-2 0,-3 -1,-5 -1,-1 -3,-2 -4,-3 -2,-1 -4,-2 -6,-3 -3,-1 -5,-2 -8,-2 0,0 -1,-1 -1,-1 -1,0 -1,0 -1,0 -1,0 -1,0 -1,0 -1,0 -1,0 -2,0 0,-1 -1,-1 -2,-1 -1,0 -2,-1 -2,-1 -4,-1 -7,-2 -11,-4 -3,-1 -5,-3 -8,-5 -2,-2 -4,-4 -5,-7 -1,-3 -1,-6 -1,-9 0,-5 0,-9 2,-12 2,-3 4,-6 8,-7 3,-1 7,-2 10,-3 4,0 9,-1 13,-1l33 0 0 14 -34 0c-2,0 -4,0 -6,1 -2,0 -4,0 -5,1 -2,0 -3,1 -4,2 0,1 -1,2 -1,3 0,2 1,3 2,5 0,1 1,2 3,3 2,1 3,1 5,2 2,1 3,1 5,2 1,0 2,0 2,0 1,0 1,1 2,1 0,0 0,0 0,0 1,0 1,0 1,0 0,0 1,0 1,0 0,0 0,0 1,0 0,0 0,1 1,1 0,0 0,0 1,0 0,0 0,0 0,0 0,0 1,0 1,0 0,0 0,0 0,1 1,0 1,0 1,0 5,1 10,3 13,5 4,2 7,4 9,6 2,2 3,5 4,7 1,3 2,6 2,10 0,4 -1,7 -2,10 -1,2 -3,4 -5,6 -2,2 -4,3 -6,4 -2,1 -4,1 -7,2 -1,0 -1,0 -2,0 -1,0 -2,0 -2,0 -1,0 -1,0 -2,0 0,0 0,0 -1,0 0,0 0,0 -1,0 0,0 0,0 -1,0 0,0 0,0 -1,0 0,0 0,0 0,0 -1,0 -1,0 -1,0 -1,0 -1,0 -1,0 -1,0 -1,0 -1,0 0,0 -1,0 -1,0 0,0 0,0 -1,0 0,0 0,0 0,0l-35 0 0 -16 0 0z"/>
    <path class="fil4" d="M2543 1130l0 -82c0,-6 0,-11 2,-16 2,-5 4,-9 7,-13 3,-3 7,-6 10,-8 4,-3 8,-4 12,-6 1,0 2,0 3,0 1,-1 2,-1 3,-1 1,0 1,0 2,0 0,0 1,0 1,0 1,0 1,-1 2,-1 0,0 1,0 1,0 7,0 12,1 17,3 5,1 9,4 12,7 3,3 6,6 8,9 3,3 4,7 6,10 0,2 1,3 1,5 0,1 1,2 1,4 0,1 0,3 0,4 0,1 0,2 0,4 0,1 0,2 0,3 0,2 0,3 0,5 0,1 -1,3 -1,4 0,1 -1,3 -1,4 -2,4 -3,7 -5,10 -2,3 -5,7 -8,10 -3,3 -7,5 -11,7 -5,1 -10,2 -16,3 -2,0 -3,0 -5,-1 -2,0 -4,0 -6,-1 -2,0 -4,-1 -7,-2 -2,0 -5,-2 -7,-3l0 -17c1,1 3,2 5,2 1,1 2,2 4,2 1,1 2,1 3,2 1,0 2,0 3,0 1,1 2,1 2,1 1,0 2,0 2,0 1,0 2,0 2,0 1,0 2,0 3,0 4,0 8,-1 12,-2 3,-1 6,-3 8,-6 2,-3 4,-6 5,-10 1,-3 2,-7 2,-11 0,-5 -1,-9 -3,-13 -1,-3 -3,-6 -6,-9 -3,-3 -6,-5 -10,-6 -3,-1 -6,-2 -10,-2 -1,0 -1,0 -2,0 -1,0 -2,1 -3,1 -1,0 -2,0 -3,0 -1,1 -2,1 -3,2 -2,1 -4,2 -6,4 -2,2 -4,4 -5,6 -2,2 -4,5 -5,8 0,4 -1,7 -1,11l0 79 -15 0 0 0zm170 -38l0 -49c0,-3 0,-6 -1,-8 -1,-3 -3,-5 -5,-8 -2,-2 -5,-4 -9,-5 -3,-1 -8,-2 -13,-2 -1,0 -2,0 -3,0 0,1 -1,1 -2,1 -2,0 -3,0 -4,1 -1,0 -2,1 -3,1 -2,1 -4,2 -5,4 -2,1 -4,3 -6,5 -1,2 -2,4 -3,7 -1,3 -2,6 -2,10 0,4 0,9 2,12 1,4 3,7 6,9 2,2 5,4 8,5 3,2 6,3 9,3 1,0 1,0 1,0 0,0 0,0 0,0 1,0 1,0 1,0 0,0 0,0 0,0 1,0 1,0 1,0 0,0 0,0 0,0 1,0 1,0 1,0 0,0 0,0 0,0 2,0 3,0 4,0 2,0 3,-1 4,-1 1,0 1,-1 2,-1 0,0 1,0 1,-1 1,0 1,0 2,-1 1,0 1,0 2,-1 0,0 1,-1 1,-1 1,-1 1,-1 2,-2 1,0 1,-1 2,-1 0,-1 1,-2 2,-2l0 19c0,1 -1,1 -1,1 0,0 0,0 0,0 0,0 0,0 0,0 0,0 0,0 0,0 0,0 0,0 0,0 0,0 0,0 0,0 -1,1 -3,2 -4,3 -2,0 -3,1 -5,2 -2,0 -4,1 -6,1 -3,0 -5,0 -8,0 0,0 -1,0 -1,0 0,0 0,0 0,0 0,0 0,0 0,0 0,0 0,0 0,0 -1,0 -1,0 -1,0 0,0 0,0 0,0 0,0 0,0 0,0 0,0 -1,0 -1,0 -5,0 -10,-1 -15,-3 -5,-2 -9,-5 -13,-9 -4,-4 -7,-9 -9,-14 -2,-5 -3,-12 -3,-18 0,-6 1,-12 3,-17 2,-5 5,-10 9,-14 3,-4 8,-8 14,-10 5,-2 12,-3 19,-3 7,0 14,1 19,3 6,2 10,5 14,8 4,4 7,8 8,12 2,5 3,9 3,14l0 50 -17 0 0 0zm30 -86l15 0 0 8c1,0 1,0 1,0 0,0 0,-1 1,-1 0,0 0,-1 1,-1 0,0 0,-1 1,-1 1,-1 2,-2 3,-3 1,-1 2,-1 4,-2 1,-1 3,-1 5,-2 1,0 3,-1 5,-1l6 0 0 16 -4 0c-3,0 -6,1 -9,2 -2,2 -4,3 -6,5 -1,2 -3,4 -4,5 -1,2 -2,4 -2,6 -1,2 -1,4 -1,5 0,1 -1,3 -1,4 0,2 0,3 0,4 0,1 0,2 0,3l0 39 -15 0 0 -86 0 0zm120 86l0 -49c0,-3 -1,-6 -2,-8 -1,-3 -2,-5 -4,-8 -2,-2 -5,-4 -9,-5 -4,-1 -8,-2 -13,-2 -1,0 -2,0 -3,0 -1,1 -2,1 -3,1 -1,0 -2,0 -3,1 -1,0 -2,1 -3,1 -2,1 -4,2 -6,4 -2,1 -4,3 -5,5 -2,2 -3,4 -4,7 -1,3 -1,6 -2,10 0,4 1,9 2,12 2,4 4,7 6,9 3,2 6,4 9,5 3,2 6,3 9,3 0,0 0,0 0,0 0,0 1,0 1,0 0,0 0,0 0,0 1,0 1,0 1,0 0,0 0,0 0,0 0,0 1,0 1,0 0,0 0,0 0,0 1,0 1,0 1,0 1,0 3,0 4,0 1,0 2,-1 3,-1 1,0 2,-1 2,-1 1,0 1,0 2,-1 0,0 1,0 2,-1 0,0 1,0 1,-1 1,0 1,-1 2,-1 0,-1 1,-1 2,-2 0,0 1,-1 1,-1 1,-1 2,-2 2,-2l0 19c0,1 0,1 0,1 0,0 0,0 0,0 0,0 0,0 0,0 0,0 0,0 0,0 0,0 0,0 0,0 0,0 0,0 0,0 -2,1 -3,2 -5,3 -1,0 -3,1 -5,2 -1,0 -3,1 -6,1 -2,0 -5,0 -8,0 0,0 0,0 0,0 0,0 0,0 0,0 -1,0 -1,0 -1,0 0,0 0,0 0,0 0,0 0,0 0,0 0,0 -1,0 -1,0 0,0 0,0 0,0 0,0 0,0 0,0 -6,0 -11,-1 -16,-3 -4,-2 -9,-5 -12,-9 -4,-4 -7,-9 -9,-14 -2,-5 -3,-12 -3,-18 0,-6 1,-12 3,-17 1,-5 4,-10 8,-14 4,-4 9,-8 14,-10 6,-2 12,-3 20,-3 7,0 13,1 19,3 5,2 10,5 13,8 4,4 7,8 9,12 2,5 3,9 3,14l0 50 -17 0 0 0zm83 -28l0 -79 17 0 0 21 32 0 0 15 -32 0 0 44c0,2 0,3 0,5 0,1 1,2 1,3 1,1 2,2 3,3 2,0 4,1 7,1l20 -1 0 16 -21 0c0,0 0,0 -1,0 0,0 0,0 0,0 0,0 0,0 0,0 0,0 0,0 -1,0 0,0 0,0 0,0 0,0 0,0 0,0 0,0 0,0 0,0 -1,0 -1,0 -1,0 -4,0 -7,-1 -10,-2 -3,-1 -6,-3 -8,-5 -2,-3 -3,-5 -4,-8 -1,-3 -2,-6 -2,-9 0,0 0,-1 0,-1 0,0 0,-1 0,-1 0,0 0,-1 0,-1 0,0 0,0 0,-1l0 0zm56 -58l16 0 0 52c0,3 0,6 1,9 1,3 3,5 5,7 2,2 4,3 6,4 3,1 6,2 9,2 2,0 5,-1 7,-2 2,-1 4,-2 6,-4 1,-1 3,-3 4,-5 1,-2 1,-4 2,-6 0,-1 0,-1 0,-2 0,0 0,-1 0,-1 0,0 0,-1 0,-1 0,0 1,0 1,-1 0,0 0,0 0,0 0,-1 0,-1 0,-1l0 -51 15 0 0 49c0,0 0,1 0,1 0,0 0,0 0,0 0,0 0,1 0,1 0,0 0,0 0,0 0,0 0,0 0,0 0,0 0,1 0,1 0,0 0,0 0,0 0,0 0,0 0,0 0,5 0,10 -2,14 -2,5 -4,9 -7,12 -3,4 -7,6 -12,8 -4,2 -9,3 -14,3 -5,0 -10,-1 -15,-2 -4,-2 -8,-4 -11,-7 -4,-3 -6,-7 -8,-12 -2,-5 -3,-11 -3,-18l0 -50 0 0zm157 47l42 -24c0,-1 0,-1 -1,-1 0,0 0,0 0,-1 0,0 -1,0 -1,-1 0,0 -1,0 -1,-1 0,0 -1,0 -1,0 -1,-1 -1,-1 -1,-1 -1,-1 -1,-1 -2,-1 0,-1 -1,-1 -1,-1 -2,-1 -3,-1 -5,-1 -1,-1 -3,-1 -5,-1 -5,0 -9,1 -12,3 -4,1 -7,4 -9,7 -3,3 -4,7 -6,10 -1,4 -1,8 -1,11 0,1 0,1 0,1 0,0 0,0 0,0 0,0 0,0 0,0 0,0 0,0 0,0 0,0 0,0 0,0 0,0 0,0 0,0 0,3 0,7 2,10 1,3 3,6 5,9 2,3 5,5 9,6 3,2 7,3 12,3 5,0 9,-1 12,-2 3,-1 6,-3 8,-5 1,-3 3,-5 4,-9 2,-3 3,-7 4,-11 0,0 0,0 0,0 0,0 0,0 0,0 0,0 0,0 0,0 0,0 0,0 0,0 0,0 0,0 0,0 0,0 0,0 0,0 0,0 0,0 0,0 0,0 0,0 0,0l16 1c0,0 0,0 0,0 0,1 0,1 0,1 0,0 0,0 0,0 0,1 0,1 0,1 0,0 0,0 0,0 0,1 0,1 0,1 0,0 0,0 0,0 0,0 0,1 0,1 0,1 0,2 0,3 0,1 -1,2 -1,3 0,0 0,1 0,1 0,1 -1,2 -1,2 0,1 0,1 0,2 0,0 -1,1 -1,1 -1,3 -3,6 -6,9 -2,3 -5,6 -8,8 -4,3 -8,5 -12,6 -5,1 -10,2 -15,2 -6,0 -12,-1 -18,-3 -5,-2 -10,-5 -14,-9 -5,-4 -8,-9 -10,-14 -2,-5 -3,-11 -3,-18 0,-6 1,-12 2,-17 2,-5 5,-10 9,-14 3,-3 7,-6 11,-9 4,-2 8,-4 12,-5 1,0 1,0 2,0 0,0 0,0 1,0 0,0 1,0 1,0 1,-1 1,-1 2,-1 0,0 1,0 2,0 1,0 2,0 3,0 5,0 9,1 14,2 4,1 8,3 11,6 4,3 7,6 10,9 3,4 5,7 7,11l-59 32 -7 -12 0 0zm84 39l0 -59c0,-4 1,-8 3,-11 1,-3 3,-6 6,-9 3,-3 7,-5 11,-6 4,-1 8,-2 13,-2 3,0 6,0 9,1 3,0 5,1 6,2 2,1 4,2 5,3 1,2 3,3 4,5 1,-1 2,-3 4,-4 1,-1 3,-2 5,-4 2,-1 5,-2 7,-2 3,-1 6,-1 9,-1 4,0 8,0 12,2 3,1 7,3 10,5 3,2 5,5 7,8 1,3 2,6 2,9 0,1 0,1 0,1 0,0 0,0 0,0 0,0 0,0 0,0 0,0 0,0 0,1 0,0 0,0 0,0 0,0 0,0 0,0 0,0 0,0 0,0 0,0 0,0 0,1l0 60 -15 0 0 -55c0,0 0,0 0,0 0,0 0,0 0,0 0,0 0,0 0,0 0,0 0,0 0,-1 0,0 0,0 0,0 0,0 0,-1 0,-1 0,0 0,0 0,-1 0,0 0,-1 -1,-1 0,0 0,-1 0,-1 0,-1 0,-1 0,-1 -1,-2 -1,-3 -2,-5 -1,-1 -2,-2 -4,-3 -1,-2 -2,-2 -4,-3 -1,-1 -3,-1 -5,-1 -2,0 -4,0 -6,1 -2,1 -3,2 -5,4 -1,1 -3,3 -4,5 0,1 -1,3 -1,5 -1,0 -1,1 -1,1 0,0 0,0 0,1 0,0 0,0 0,1 0,0 0,0 0,0l0 55 -15 0 0 -54c0,-2 -1,-5 -1,-7 -1,-2 -2,-4 -3,-6 -2,-2 -4,-4 -6,-5 -2,0 -4,-1 -7,-1 -4,0 -7,1 -9,2 -2,2 -4,3 -5,5 -1,2 -2,4 -2,7 -1,2 -1,4 -1,7 0,0 0,0 0,0 0,0 0,0 0,0 0,0 0,0 0,0 0,0 0,0 0,0 0,0 0,0 0,0 0,0 0,0 0,0l0 52 -16 0 0 0zm127 38l0 -82c0,-6 1,-11 3,-16 1,-5 4,-9 7,-13 3,-3 6,-6 10,-8 3,-3 7,-4 11,-6 1,0 2,0 3,0 1,-1 3,-1 4,-1 0,0 1,0 1,0 1,0 1,0 2,0 0,0 1,-1 1,-1 1,0 1,0 2,0 6,0 12,1 16,3 5,1 9,4 13,7 3,3 6,6 8,9 2,3 4,7 5,10 1,2 1,3 2,5 0,1 0,2 0,4 0,1 1,3 1,4 0,1 0,2 0,4 0,1 0,2 0,3 0,2 -1,3 -1,5 0,1 0,3 0,4 -1,1 -1,3 -2,4 -1,4 -3,7 -5,10 -2,3 -4,7 -7,10 -3,3 -7,5 -12,7 -4,1 -9,2 -15,3 -2,0 -4,0 -6,-1 -1,0 -3,0 -5,-1 -2,0 -4,-1 -7,-2 -2,0 -5,-2 -8,-3l0 -17c2,1 4,2 5,2 2,1 3,2 4,2 1,1 3,1 4,2 1,0 2,0 3,0 1,1 1,1 2,1 1,0 1,0 2,0 1,0 1,0 2,0 1,0 1,0 2,0 5,0 9,-1 12,-2 4,-1 6,-3 9,-6 2,-3 3,-6 4,-10 2,-3 2,-7 2,-11 0,-5 -1,-9 -2,-13 -2,-3 -4,-6 -7,-9 -3,-3 -6,-5 -9,-6 -3,-1 -7,-2 -10,-2 -1,0 -2,0 -3,0 0,0 -1,1 -2,1 -1,0 -2,0 -3,0 -1,1 -2,1 -3,2 -2,1 -4,2 -6,4 -2,2 -4,4 -6,6 -2,2 -3,5 -4,8 -1,4 -1,7 -1,11l0 79 -16 0 0 0zm100 -124l16 0 0 8c0,0 0,0 0,0 1,0 1,-1 1,-1 0,0 1,-1 1,-1 0,0 1,-1 1,-1 1,-1 2,-2 3,-3 1,-1 3,-1 4,-2 2,-1 3,-1 5,-2 2,0 4,-1 6,-1l6 0 0 16 -5 0c-3,0 -6,1 -8,2 -3,2 -5,3 -6,5 -2,2 -3,4 -4,5 -1,2 -2,4 -3,6 0,2 0,4 -1,5 0,1 0,3 0,4 0,2 0,3 0,4 0,1 0,2 0,3l0 39 -16 0 0 -86 0 0z"/>
    <path class="fil4" d="M3538 1053l42 -24c0,-1 0,-1 0,-1 -1,0 -1,0 -1,-1 0,0 -1,0 -1,-1 0,0 -1,0 -1,-1 0,0 -1,0 -1,0 0,-1 -1,-1 -1,-1 -1,-1 -1,-1 -2,-1 0,-1 -1,-1 -1,-1 -1,-1 -3,-1 -4,-1 -2,-1 -4,-1 -6,-1 -5,0 -9,1 -12,3 -4,1 -7,4 -9,7 -2,3 -4,7 -5,10 -2,4 -2,8 -2,11 0,1 0,1 0,1 0,0 0,0 0,0 0,0 0,0 0,0 0,0 0,0 0,0 0,0 0,0 0,0 0,0 0,0 0,0 0,3 0,7 2,10 1,3 3,6 5,9 3,3 5,5 9,6 4,2 8,3 12,3 5,0 9,-1 12,-2 4,-1 6,-3 8,-5 1,-3 3,-5 4,-9 2,-3 3,-7 4,-11 0,0 0,0 0,0 0,0 0,0 0,0 0,0 0,0 0,0 0,0 0,0 0,0 0,0 0,0 0,0 0,0 0,0 0,0 0,0 0,0 0,0 0,0 0,0 0,0l16 1c0,0 0,0 0,0 0,1 0,1 0,1 0,0 0,0 0,0 0,1 0,1 0,1 0,0 0,0 0,0 0,1 0,1 0,1 0,0 0,0 0,0 0,0 0,1 0,1 0,1 0,2 0,3 0,1 0,2 -1,3 0,0 0,1 0,1 0,1 0,2 -1,2 0,1 0,1 0,2 0,0 -1,1 -1,1 -1,3 -3,6 -5,9 -3,3 -6,6 -9,8 -4,3 -8,5 -12,6 -4,1 -9,2 -15,2 -6,0 -12,-1 -17,-3 -6,-2 -11,-5 -15,-9 -4,-4 -8,-9 -10,-14 -2,-5 -3,-11 -3,-18 0,-6 1,-12 3,-17 1,-5 4,-10 8,-14 3,-3 7,-6 11,-9 4,-2 8,-4 12,-5 1,0 1,0 2,0 0,0 1,0 1,0 0,0 1,0 1,0 1,-1 1,-1 2,-1 1,0 2,0 2,0 1,0 2,0 3,0 5,0 10,1 14,2 4,1 8,3 11,6 4,3 7,6 10,9 3,4 5,7 7,11l-59 32 -7 -12 0 0zm79 23l37 0c0,1 0,1 0,1 1,0 1,0 1,0 0,0 0,0 1,0 0,0 0,0 0,0 1,0 1,0 1,0 0,0 1,0 1,0 0,0 0,0 1,0 0,0 0,0 0,0 2,0 3,0 4,0 2,-1 3,-1 4,-1 1,-1 2,-1 3,-2 0,-1 1,-3 1,-4 0,-2 -1,-3 -2,-5 -1,-1 -2,-2 -4,-3 -2,-1 -4,-2 -6,-3 -2,-1 -5,-2 -8,-2 0,0 0,-1 -1,-1 0,0 0,0 -1,0 0,0 -1,0 -1,0 0,0 -1,0 -1,0 -1,-1 -2,-1 -2,-1 -1,0 -2,-1 -3,-1 -4,-1 -7,-2 -10,-4 -3,-1 -6,-3 -8,-5 -2,-2 -4,-4 -5,-7 -1,-3 -2,-6 -2,-9 0,-5 1,-9 3,-12 1,-3 4,-6 7,-7 3,-1 7,-2 11,-3 4,0 8,-1 13,-1l32 0 0 14 -34 0c-2,0 -4,0 -6,1 -1,0 -3,0 -5,1 -1,0 -2,1 -3,2 -1,1 -1,2 -1,3 0,2 0,3 1,5 1,1 2,2 4,3 1,1 3,1 4,2 2,1 4,1 6,2 0,0 1,0 2,0 0,0 1,1 1,1 0,0 1,0 1,0 0,0 0,0 1,0 0,0 0,0 0,0 1,0 1,0 1,0 1,0 1,1 1,1 1,0 1,0 1,0 1,0 1,0 1,0 0,0 0,0 0,0 0,0 1,0 1,1 0,0 0,0 0,0 6,1 10,3 14,5 3,2 6,4 8,6 2,2 4,5 5,7 1,3 1,6 1,10 0,4 0,7 -1,10 -2,2 -3,4 -5,6 -2,2 -4,3 -6,4 -3,1 -5,1 -7,2 -1,0 -2,0 -3,0 -1,0 -1,0 -2,0 0,0 -1,0 -1,0 0,0 -1,0 -1,0 0,0 -1,0 -1,0 0,0 -1,0 -1,0 0,0 -1,0 -1,0 0,0 -1,0 -1,0 0,0 -1,0 -1,0 0,0 0,0 -1,0 0,0 0,0 -1,0 0,0 0,0 0,0 -1,0 -1,0 -1,0 0,0 -1,0 -1,0l-35 0 0 -16 0 0zm152 16l0 -49c0,-3 0,-6 -1,-8 -1,-3 -3,-5 -5,-8 -2,-2 -5,-4 -8,-5 -4,-1 -9,-2 -14,-2 -1,0 -2,0 -3,0 0,1 -1,1 -2,1 -2,0 -3,0 -4,1 -1,0 -2,1 -3,1 -2,1 -4,2 -5,4 -2,1 -4,3 -6,5 -1,2 -2,4 -3,7 -1,3 -2,6 -2,10 0,4 0,9 2,12 1,4 3,7 6,9 2,2 5,4 8,5 3,2 6,3 9,3 1,0 1,0 1,0 0,0 0,0 0,0 1,0 1,0 1,0 0,0 0,0 0,0 1,0 1,0 1,0 0,0 0,0 0,0 1,0 1,0 1,0 0,0 0,0 0,0 2,0 3,0 4,0 2,0 3,-1 4,-1 1,0 1,-1 2,-1 0,0 1,0 1,-1 1,0 1,0 2,-1 1,0 1,0 2,-1 0,0 1,-1 1,-1 1,-1 1,-1 2,-2 1,0 1,-1 2,-1 0,-1 1,-2 2,-2l0 19c0,1 -1,1 -1,1 0,0 0,0 0,0 0,0 0,0 0,0 0,0 0,0 0,0 0,0 0,0 0,0 0,0 0,0 0,0 -1,1 -3,2 -4,3 -2,0 -3,1 -5,2 -2,0 -4,1 -6,1 -2,0 -5,0 -8,0 0,0 -1,0 -1,0 0,0 0,0 0,0 0,0 0,0 0,0 0,0 0,0 0,0 -1,0 -1,0 -1,0 0,0 0,0 0,0 0,0 0,0 0,0 0,0 -1,0 -1,0 -5,0 -10,-1 -15,-3 -5,-2 -9,-5 -13,-9 -4,-4 -7,-9 -9,-14 -2,-5 -3,-12 -3,-18 0,-6 1,-12 3,-17 2,-5 5,-10 9,-14 4,-4 8,-8 14,-10 5,-2 12,-3 19,-3 7,0 14,1 19,3 6,2 10,5 14,8 4,4 7,8 8,12 2,5 3,9 3,14l0 50 -17 0 0 0z"/>
   </g>
  </g>
  <path class="fil0" d="M782 860l-134 -341 134 -407 134 407 -134 341z"/>
  <g style="clip-path:url(#id0)">
   <g id="_2793840311232">
    <path id="1" class="fil2" d="M489 549l518 -140 240 367 -758 -227z"/>
    <path class="fil0" d="M1255 780l-475 147 -241 -367 716 220z"/>
    <path class="fil3" d="M916 453l-357 94 -240 -368 597 274z"/>
    <path class="fil1" d="M311 178l476 -146 384 538 -860 -392z"/>
    <path class="fil0" d="M-342 398l233 -72 117 180 -350 -108z"/>
   </g>
  </g>
  <path class="fil5" d="M782 860l-134 -341 134 -407 134 407 -134 341z"/>
  <rect class="fil5" width="5109" height="1342"/>
 </g>
</svg>
